<?xml version="1.0" encoding="UTF-8" standalone="no"?><!DOCTYPE svg PUBLIC "-//W3C//DTD SVG 1.1//EN" "http://www.w3.org/Graphics/SVG/1.1/DTD/svg11.dtd"><svg width="100%" height="100%" viewBox="0 0 835 282" version="1.1" xmlns="http://www.w3.org/2000/svg" xmlns:xlink="http://www.w3.org/1999/xlink" xml:space="preserve" xmlns:serif="http://www.serif.com/" style="fill-rule:evenodd;clip-rule:evenodd;stroke-miterlimit:10;"><rect id="Seite-1" serif:id="Seite 1" x="0" y="0" width="835" height="281.333" style="fill:none;"/><clipPath id="_clip1"><rect x="0" y="0" width="835" height="281.333"/></clipPath><g clip-path="url(#_clip1)"><g id="Ebene-1" serif:id="Ebene 1"><g transform="matrix(0.24,0,0,0.24,56.597732,70.382384)"><g transform="matrix(461.885,0,0,462.5,74.4707,400.941733)"><path d="M0.051,-0l0,-0.417l0.099,0l0,0.051c0.015,-0.021 0.034,-0.037 0.056,-0.047c0.022,-0.011 0.046,-0.016 0.072,-0.016c0.03,0 0.057,0.007 0.083,0.021c0.026,0.014 0.046,0.035 0.062,0.062c0.016,0.027 0.024,0.06 0.024,0.099l0,0.247l-0.109,-0l0,-0.232c0,-0.026 -0.008,-0.048 -0.023,-0.068c-0.015,-0.02 -0.037,-0.03 -0.066,-0.03c-0.023,0 -0.043,0.008 -0.061,0.024c-0.018,0.016 -0.027,0.04 -0.027,0.073l0,0.234l-0.109,-0Z" style="fill:#002c58;fill-rule:nonzero;"/></g><g transform="matrix(461.885,0,0,462.5,302.65975,400.941733)"><path d="M0.236,0.01c-0.038,0 -0.073,-0.01 -0.105,-0.03c-0.031,-0.02 -0.057,-0.046 -0.075,-0.079c-0.019,-0.033 -0.028,-0.069 -0.028,-0.109c0,-0.04 0.009,-0.077 0.028,-0.11c0.019,-0.033 0.044,-0.059 0.075,-0.079c0.031,-0.02 0.066,-0.029 0.105,-0.029c0.027,0 0.052,0.005 0.075,0.015c0.023,0.01 0.043,0.023 0.059,0.041l0,-0.045l0.095,0l0,0.417l-0.095,-0l0,-0.045c-0.016,0.017 -0.036,0.031 -0.059,0.04c-0.023,0.01 -0.048,0.015 -0.075,0.015Zm0.013,-0.097c0.022,0 0.042,-0.005 0.06,-0.016c0.018,-0.011 0.032,-0.026 0.043,-0.044c0.011,-0.018 0.016,-0.039 0.016,-0.061c0,-0.022 -0.005,-0.043 -0.016,-0.061c-0.011,-0.018 -0.025,-0.033 -0.043,-0.044c-0.018,-0.011 -0.038,-0.016 -0.06,-0.016c-0.022,0 -0.042,0.005 -0.06,0.016c-0.018,0.011 -0.032,0.026 -0.043,0.044c-0.011,0.018 -0.016,0.039 -0.016,0.061c0,0.022 0.005,0.043 0.016,0.061c0.011,0.018 0.025,0.033 0.043,0.044c0.018,0.011 0.038,0.016 0.06,0.016Z" style="fill:#002c58;fill-rule:nonzero;"/></g><g transform="matrix(461.885,0,0,462.5,543.678939,400.941733)"><path d="M0.252,0.013c-0.041,0 -0.079,-0.01 -0.113,-0.03c-0.034,-0.02 -0.061,-0.046 -0.081,-0.08c-0.02,-0.033 -0.03,-0.071 -0.03,-0.111c0,-0.041 0.01,-0.078 0.03,-0.111c0.02,-0.033 0.047,-0.06 0.081,-0.08c0.034,-0.02 0.071,-0.03 0.112,-0.03c0.042,0 0.079,0.01 0.113,0.03c0.034,0.02 0.061,0.046 0.081,0.08c0.02,0.033 0.03,0.07 0.03,0.111c0,0.041 -0.01,0.078 -0.03,0.111c-0.02,0.034 -0.047,0.06 -0.081,0.08c-0.034,0.02 -0.071,0.03 -0.113,0.03Zm-0,-0.099c0.022,-0 0.043,-0.005 0.061,-0.016c0.018,-0.011 0.033,-0.026 0.043,-0.044c0.011,-0.018 0.016,-0.039 0.016,-0.062c0,-0.023 -0.005,-0.043 -0.016,-0.061c-0.011,-0.018 -0.025,-0.033 -0.043,-0.044c-0.018,-0.011 -0.038,-0.016 -0.061,-0.016c-0.022,0 -0.042,0.005 -0.061,0.016c-0.018,0.011 -0.032,0.026 -0.043,0.044c-0.011,0.018 -0.016,0.039 -0.016,0.061c0,0.023 0.005,0.043 0.016,0.062c0.011,0.018 0.025,0.033 0.043,0.044c0.018,0.011 0.038,0.016 0.061,0.016Z" style="fill:#002c58;fill-rule:nonzero;"/></g><g transform="matrix(461.885,0,0,462.5,998.699867,400.941733)"><path d="M0.067,-0l0,-0.417l0.075,0l0,0.417l-0.075,-0Zm0.038,-0.492c-0.014,0 -0.026,-0.005 -0.035,-0.015c-0.01,-0.01 -0.015,-0.022 -0.015,-0.035c0,-0.014 0.005,-0.026 0.015,-0.036c0.01,-0.009 0.022,-0.014 0.035,-0.014c0.014,0 0.026,0.005 0.036,0.014c0.009,0.009 0.014,0.021 0.014,0.036c0,0.014 -0.005,0.026 -0.014,0.035c-0.009,0.01 -0.021,0.015 -0.036,0.015Z" style="fill:#002c58;fill-rule:nonzero;"/></g><g transform="matrix(461.885,0,0,462.5,1101.801478,400.941733)"><path d="M0.067,-0l0,-0.417l0.069,0l0,0.067c0.015,-0.025 0.035,-0.043 0.059,-0.056c0.024,-0.013 0.051,-0.019 0.079,-0.019c0.03,0 0.057,0.007 0.082,0.022c0.025,0.015 0.046,0.036 0.061,0.063c0.016,0.028 0.024,0.061 0.024,0.1l0,0.24l-0.075,-0l0,-0.229c0,-0.033 -0.01,-0.062 -0.03,-0.087c-0.02,-0.025 -0.047,-0.038 -0.083,-0.038c-0.029,0 -0.055,0.011 -0.078,0.032c-0.023,0.021 -0.034,0.052 -0.034,0.091l0,0.231l-0.075,-0Z" style="fill:#002c58;fill-rule:nonzero;"/></g><g transform="matrix(461.885,0,0,462.5,1339.619547,400.941733)"><path d="M0.115,-0l0,-0.354l-0.094,0l-0,-0.062l0.097,0l0,-0.139l0.071,0l0,0.139l0.103,0l0,0.062l-0.101,0l0,0.354l-0.075,-0Z" style="fill:#002c58;fill-rule:nonzero;"/></g><g transform="matrix(461.885,0,0,462.5,1490.834179,400.941733)"><path d="M0.265,0.008c-0.044,0 -0.083,-0.01 -0.117,-0.029c-0.034,-0.019 -0.062,-0.046 -0.081,-0.08c-0.02,-0.034 -0.03,-0.071 -0.03,-0.112c0,-0.039 0.009,-0.075 0.028,-0.107c0.019,-0.032 0.045,-0.058 0.077,-0.077c0.032,-0.019 0.068,-0.028 0.107,-0.028c0.038,0 0.074,0.009 0.106,0.027c0.032,0.018 0.057,0.043 0.076,0.074c0.019,0.031 0.028,0.066 0.028,0.106l0,0.031l-0.272,0c-0.012,0 -0.024,-0 -0.037,-0.001c-0.013,-0.001 -0.025,-0.002 -0.037,-0.004c0.005,0.037 0.022,0.068 0.05,0.093c0.028,0.025 0.062,0.038 0.102,0.038c0.026,0 0.051,-0.006 0.074,-0.018c0.023,-0.012 0.041,-0.028 0.055,-0.048l0.021,0.085c-0.02,0.016 -0.043,0.029 -0.068,0.038c-0.026,0.009 -0.053,0.014 -0.082,0.014Zm-0.153,-0.252c0.025,-0.004 0.05,-0.006 0.076,-0.006l0.138,0c0.01,0 0.02,0 0.03,0.001c0.01,0.001 0.02,0.002 0.03,0.002c-0.006,-0.032 -0.023,-0.059 -0.049,-0.08c-0.026,-0.021 -0.055,-0.032 -0.088,-0.032c-0.034,0 -0.063,0.011 -0.089,0.034c-0.025,0.022 -0.042,0.049 -0.049,0.081Z" style="fill:#002c58;fill-rule:nonzero;"/></g><g transform="matrix(461.885,0,0,462.5,1725.444714,400.941733)"><rect x="0.067" y="-0.667" width="0.075" height="0.667" style="fill:#002c58;fill-rule:nonzero;"/></g><g transform="matrix(461.885,0,0,462.5,1828.546325,400.941733)"><rect x="0.067" y="-0.667" width="0.075" height="0.667" style="fill:#002c58;fill-rule:nonzero;"/></g><g transform="matrix(461.885,0,0,462.5,1931.647937,400.941733)"><path d="M0.067,-0l0,-0.417l0.075,0l0,0.417l-0.075,-0Zm0.038,-0.492c-0.014,0 -0.026,-0.005 -0.035,-0.015c-0.01,-0.01 -0.015,-0.022 -0.015,-0.035c0,-0.014 0.005,-0.026 0.015,-0.036c0.01,-0.009 0.022,-0.014 0.035,-0.014c0.014,0 0.026,0.005 0.036,0.014c0.009,0.009 0.014,0.021 0.014,0.036c0,0.014 -0.005,0.026 -0.014,0.035c-0.009,0.01 -0.021,0.015 -0.036,0.015Z" style="fill:#002c58;fill-rule:nonzero;"/></g><g transform="matrix(461.885,0,0,462.5,2034.749548,400.941733)"><path d="M0.235,0.217c-0.032,0 -0.061,-0.005 -0.087,-0.014c-0.026,-0.009 -0.049,-0.022 -0.07,-0.038l0.021,-0.085c0.014,0.02 0.032,0.036 0.056,0.049c0.023,0.013 0.05,0.019 0.08,0.019c0.047,0 0.085,-0.014 0.114,-0.042c0.029,-0.028 0.043,-0.065 0.043,-0.109l0,-0.051c-0.019,0.019 -0.04,0.033 -0.066,0.044c-0.025,0.011 -0.052,0.016 -0.081,0.016c-0.038,-0 -0.073,-0.01 -0.104,-0.029c-0.031,-0.019 -0.057,-0.045 -0.075,-0.077c-0.019,-0.032 -0.028,-0.068 -0.028,-0.108c0,-0.039 0.009,-0.075 0.028,-0.108c0.019,-0.032 0.044,-0.058 0.075,-0.077c0.031,-0.019 0.066,-0.029 0.104,-0.029c0.029,0 0.056,0.005 0.081,0.016c0.025,0.011 0.047,0.025 0.066,0.044l0,-0.055l0.069,0l0,0.417c-0,0.045 -0.011,0.084 -0.032,0.117c-0.021,0.032 -0.049,0.057 -0.083,0.074c-0.034,0.017 -0.071,0.026 -0.111,0.026Zm0.019,-0.279c0.026,0 0.05,-0.007 0.072,-0.02c0.022,-0.013 0.039,-0.031 0.051,-0.053c0.013,-0.022 0.019,-0.046 0.019,-0.073c0,-0.027 -0.006,-0.051 -0.019,-0.073c-0.013,-0.022 -0.03,-0.04 -0.051,-0.053c-0.022,-0.013 -0.045,-0.02 -0.072,-0.02c-0.026,0 -0.05,0.007 -0.072,0.02c-0.022,0.013 -0.039,0.031 -0.051,0.053c-0.013,0.022 -0.019,0.046 -0.019,0.073c0,0.027 0.006,0.051 0.019,0.073c0.013,0.022 0.03,0.04 0.051,0.053c0.022,0.013 0.045,0.02 0.072,0.02Z" style="fill:#002c58;fill-rule:nonzero;"/></g><g transform="matrix(461.885,0,0,462.5,2285.397756,400.941733)"><path d="M0.265,0.008c-0.044,0 -0.083,-0.01 -0.117,-0.029c-0.034,-0.019 -0.062,-0.046 -0.081,-0.08c-0.02,-0.034 -0.03,-0.071 -0.03,-0.112c0,-0.039 0.009,-0.075 0.028,-0.107c0.019,-0.032 0.045,-0.058 0.077,-0.077c0.032,-0.019 0.068,-0.028 0.107,-0.028c0.038,0 0.074,0.009 0.106,0.027c0.032,0.018 0.057,0.043 0.076,0.074c0.019,0.031 0.028,0.066 0.028,0.106l0,0.031l-0.272,0c-0.012,0 -0.024,-0 -0.037,-0.001c-0.013,-0.001 -0.025,-0.002 -0.037,-0.004c0.005,0.037 0.022,0.068 0.05,0.093c0.028,0.025 0.062,0.038 0.102,0.038c0.026,0 0.051,-0.006 0.074,-0.018c0.023,-0.012 0.041,-0.028 0.055,-0.048l0.021,0.085c-0.02,0.016 -0.043,0.029 -0.068,0.038c-0.026,0.009 -0.053,0.014 -0.082,0.014Zm-0.153,-0.252c0.025,-0.004 0.05,-0.006 0.076,-0.006l0.138,0c0.01,0 0.02,0 0.03,0.001c0.01,0.001 0.02,0.002 0.03,0.002c-0.006,-0.032 -0.023,-0.059 -0.049,-0.08c-0.026,-0.021 -0.055,-0.032 -0.088,-0.032c-0.034,0 -0.063,0.011 -0.089,0.034c-0.025,0.022 -0.042,0.049 -0.049,0.081Z" style="fill:#002c58;fill-rule:nonzero;"/></g><g transform="matrix(461.885,0,0,462.5,2520.008291,400.941733)"><path d="M0.067,-0l0,-0.417l0.069,0l0,0.067c0.015,-0.025 0.035,-0.043 0.059,-0.056c0.024,-0.013 0.051,-0.019 0.079,-0.019c0.03,0 0.057,0.007 0.082,0.022c0.025,0.015 0.046,0.036 0.061,0.063c0.016,0.028 0.024,0.061 0.024,0.1l0,0.24l-0.075,-0l0,-0.229c0,-0.033 -0.01,-0.062 -0.03,-0.087c-0.02,-0.025 -0.047,-0.038 -0.083,-0.038c-0.029,0 -0.055,0.011 -0.078,0.032c-0.023,0.021 -0.034,0.052 -0.034,0.091l0,0.231l-0.075,-0Z" style="fill:#002c58;fill-rule:nonzero;"/></g><g transform="matrix(461.885,0,0,462.5,2757.82636,400.941733)"><path d="M0.258,0.008c-0.041,0 -0.078,-0.01 -0.111,-0.029c-0.033,-0.019 -0.06,-0.046 -0.08,-0.078c-0.02,-0.033 -0.03,-0.069 -0.03,-0.109c0,-0.04 0.01,-0.076 0.03,-0.109c0.02,-0.033 0.047,-0.059 0.08,-0.078c0.033,-0.019 0.07,-0.029 0.111,-0.029c0.03,0 0.058,0.005 0.085,0.016c0.026,0.011 0.05,0.025 0.069,0.042l-0.023,0.094c-0.012,-0.023 -0.029,-0.043 -0.052,-0.058c-0.023,-0.016 -0.05,-0.024 -0.08,-0.024c-0.027,0 -0.051,0.007 -0.073,0.02c-0.022,0.013 -0.039,0.031 -0.052,0.053c-0.013,0.022 -0.019,0.046 -0.019,0.073c0,0.026 0.006,0.051 0.019,0.073c0.013,0.022 0.03,0.04 0.052,0.053c0.022,0.013 0.046,0.02 0.073,0.02c0.03,0 0.056,-0.008 0.08,-0.023c0.023,-0.015 0.041,-0.035 0.052,-0.059l0.023,0.094c-0.02,0.018 -0.043,0.032 -0.069,0.042c-0.026,0.011 -0.055,0.016 -0.085,0.016Z" style="fill:#002c58;fill-rule:nonzero;"/></g><g transform="matrix(461.885,0,0,462.5,2966.776617,400.941733)"><path d="M0.265,0.008c-0.044,0 -0.083,-0.01 -0.117,-0.029c-0.034,-0.019 -0.062,-0.046 -0.081,-0.08c-0.02,-0.034 -0.03,-0.071 -0.03,-0.112c0,-0.039 0.009,-0.075 0.028,-0.107c0.019,-0.032 0.045,-0.058 0.077,-0.077c0.032,-0.019 0.068,-0.028 0.107,-0.028c0.038,0 0.074,0.009 0.106,0.027c0.032,0.018 0.057,0.043 0.076,0.074c0.019,0.031 0.028,0.066 0.028,0.106l0,0.031l-0.272,0c-0.012,0 -0.024,-0 -0.037,-0.001c-0.013,-0.001 -0.025,-0.002 -0.037,-0.004c0.005,0.037 0.022,0.068 0.05,0.093c0.028,0.025 0.062,0.038 0.102,0.038c0.026,0 0.051,-0.006 0.074,-0.018c0.023,-0.012 0.041,-0.028 0.055,-0.048l0.021,0.085c-0.02,0.016 -0.043,0.029 -0.068,0.038c-0.026,0.009 -0.053,0.014 -0.082,0.014Zm-0.153,-0.252c0.025,-0.004 0.05,-0.006 0.076,-0.006l0.138,0c0.01,0 0.02,0 0.03,0.001c0.01,0.001 0.02,0.002 0.03,0.002c-0.006,-0.032 -0.023,-0.059 -0.049,-0.08c-0.026,-0.021 -0.055,-0.032 -0.088,-0.032c-0.034,0 -0.063,0.011 -0.089,0.034c-0.025,0.022 -0.042,0.049 -0.049,0.081Z" style="fill:#002c58;fill-rule:nonzero;"/></g></g><path d="M24.845,26.719l250.275,0l-250.275,0Z" style="fill:#002c58;fill-rule:nonzero;"/><path d="M275.12,26.719l-250.275,0" style="fill:none;fill-rule:nonzero;stroke:#002c58;stroke-width:6.26px;"/><path d="M27.65,268.981l0,-239.525l0,239.525Z" style="fill:#002c58;fill-rule:nonzero;"/><path d="M27.65,29.456l0,239.525" style="fill:none;fill-rule:nonzero;stroke:#002c58;stroke-width:6.26px;"/><path d="M25.898,266.244l249.574,0l-249.574,0Z" style="fill:#002c58;fill-rule:nonzero;"/><path d="M25.897,266.244l249.574,0" style="fill:none;fill-rule:nonzero;stroke:#002c58;stroke-width:6.26px;"/><path d="M275.12,74.92l0,-51.327l0,51.327Z" style="fill:#002c58;fill-rule:nonzero;"/><path d="M275.12,23.593l0,51.327" style="fill:none;fill-rule:nonzero;stroke:#002c58;stroke-width:6.26px;"/><path d="M275.471,269.375l0,-51.327l0,51.327Z" style="fill:#002c58;fill-rule:nonzero;"/><path d="M275.471,218.048l0,51.327l0,-51.327Z" style="fill:none;fill-rule:nonzero;stroke:#002c58;stroke-width:6.26px;"/></g></g></svg>