<?xml version="1.0" encoding="UTF-8" standalone="no"?><!DOCTYPE svg PUBLIC "-//W3C//DTD SVG 1.1//EN" "http://www.w3.org/Graphics/SVG/1.1/DTD/svg11.dtd"><svg width="100%" height="100%" viewBox="0 0 835 282" version="1.1" xmlns="http://www.w3.org/2000/svg" xmlns:xlink="http://www.w3.org/1999/xlink" xml:space="preserve" xmlns:serif="http://www.serif.com/" style="fill-rule:evenodd;clip-rule:evenodd;stroke-miterlimit:10;"><rect id="Seite-1" serif:id="Seite 1" x="0" y="0" width="835" height="281.333" style="fill:none;"/><clipPath id="_clip1"><rect x="0" y="0" width="835" height="281.333"/></clipPath><g clip-path="url(#_clip1)"><g id="Ebene-1" serif:id="Ebene 1"><g transform="matrix(0.24,0,0,0.24,56.597732,70.382384)"><g transform="matrix(0.99867,0,0,1,0.099026,0)"><g transform="matrix(462.5,0,0,462.5,74.4707,400.941733)"><path d="M0.051,-0l0,-0.417l0.099,0l0,0.051c0.015,-0.021 0.034,-0.037 0.056,-0.047c0.022,-0.011 0.046,-0.016 0.072,-0.016c0.03,0 0.057,0.007 0.083,0.021c0.026,0.014 0.046,0.035 0.062,0.062c0.016,0.027 0.024,0.06 0.024,0.099l0,0.247l-0.109,-0l0,-0.232c0,-0.026 -0.008,-0.048 -0.023,-0.068c-0.015,-0.02 -0.037,-0.03 -0.066,-0.03c-0.023,0 -0.043,0.008 -0.061,0.024c-0.018,0.016 -0.027,0.04 -0.027,0.073l0,0.234l-0.109,-0Z" style="fill:#002c58;fill-rule:nonzero;"/></g><g transform="matrix(462.5,0,0,462.5,302.963584,400.941733)"><path d="M0.236,0.01c-0.038,0 -0.073,-0.01 -0.105,-0.03c-0.031,-0.02 -0.057,-0.046 -0.075,-0.079c-0.019,-0.033 -0.028,-0.069 -0.028,-0.109c0,-0.04 0.009,-0.077 0.028,-0.11c0.019,-0.033 0.044,-0.059 0.075,-0.079c0.031,-0.02 0.066,-0.029 0.105,-0.029c0.027,0 0.052,0.005 0.075,0.015c0.023,0.01 0.043,0.023 0.059,0.041l0,-0.045l0.095,0l0,0.417l-0.095,-0l0,-0.045c-0.016,0.017 -0.036,0.031 -0.059,0.04c-0.023,0.01 -0.048,0.015 -0.075,0.015Zm0.013,-0.097c0.022,0 0.042,-0.005 0.06,-0.016c0.018,-0.011 0.032,-0.026 0.043,-0.044c0.011,-0.018 0.016,-0.039 0.016,-0.061c0,-0.022 -0.005,-0.043 -0.016,-0.061c-0.011,-0.018 -0.025,-0.033 -0.043,-0.044c-0.018,-0.011 -0.038,-0.016 -0.06,-0.016c-0.022,0 -0.042,0.005 -0.06,0.016c-0.018,0.011 -0.032,0.026 -0.043,0.044c-0.011,0.018 -0.016,0.039 -0.016,0.061c0,0.022 0.005,0.043 0.016,0.061c0.011,0.018 0.025,0.033 0.043,0.044c0.018,0.011 0.038,0.016 0.06,0.016Z" style="fill:#002c58;fill-rule:nonzero;"/></g><g transform="matrix(462.5,0,0,462.5,544.30369,400.941733)"><path d="M0.252,0.013c-0.041,0 -0.079,-0.01 -0.113,-0.03c-0.034,-0.02 -0.061,-0.046 -0.081,-0.08c-0.02,-0.033 -0.03,-0.071 -0.03,-0.111c0,-0.041 0.01,-0.078 0.03,-0.111c0.02,-0.033 0.047,-0.06 0.081,-0.08c0.034,-0.02 0.071,-0.03 0.112,-0.03c0.042,0 0.079,0.01 0.113,0.03c0.034,0.02 0.061,0.046 0.081,0.08c0.02,0.033 0.03,0.07 0.03,0.111c0,0.041 -0.01,0.078 -0.03,0.111c-0.02,0.034 -0.047,0.06 -0.081,0.08c-0.034,0.02 -0.071,0.03 -0.113,0.03Zm-0,-0.099c0.022,-0 0.043,-0.005 0.061,-0.016c0.018,-0.011 0.033,-0.026 0.043,-0.044c0.011,-0.018 0.016,-0.039 0.016,-0.062c0,-0.023 -0.005,-0.043 -0.016,-0.061c-0.011,-0.018 -0.025,-0.033 -0.043,-0.044c-0.018,-0.011 -0.038,-0.016 -0.061,-0.016c-0.022,0 -0.042,0.005 -0.061,0.016c-0.018,0.011 -0.032,0.026 -0.043,0.044c-0.011,0.018 -0.016,0.039 -0.016,0.061c0,0.023 0.005,0.043 0.016,0.062c0.011,0.018 0.025,0.033 0.043,0.044c0.018,0.011 0.038,0.016 0.061,0.016Z" style="fill:#002c58;fill-rule:nonzero;"/></g></g><g transform="matrix(0.99867,0,0,1,1.034906,0)"><g transform="matrix(462.5,0,0,462.5,3197.728792,400.941733)"></g><text x="998.993px" y="400.942px" style="font-family:'Afacad-Regular', 'Afacad';font-size:462.5px;fill:#002c58;"><tspan x="998.993px 1102.232px 1340.367px 1491.783px 1726.706px 1829.945px 1933.184px 2036.423px 2287.404px 2522.327px 2760.462px 2969.691px " y="400.942px 400.942px 400.942px 400.942px 400.942px 400.942px 400.942px 400.942px 400.942px 400.942px 400.942px 400.942px ">intelligence</tspan></text></g></g><path d="M24.845,26.719l250.275,0l-250.275,0Z" style="fill:#002c58;fill-rule:nonzero;"/><path d="M275.12,26.719l-250.275,0" style="fill:none;fill-rule:nonzero;stroke:#002c58;stroke-width:6.26px;"/><path d="M27.65,268.981l0,-239.525l0,239.525Z" style="fill:#002c58;fill-rule:nonzero;"/><path d="M27.65,29.456l0,239.525" style="fill:none;fill-rule:nonzero;stroke:#002c58;stroke-width:6.26px;"/><path d="M25.898,266.244l249.574,0l-249.574,0Z" style="fill:#002c58;fill-rule:nonzero;"/><path d="M25.897,266.244l249.574,0" style="fill:none;fill-rule:nonzero;stroke:#002c58;stroke-width:6.26px;"/><path d="M275.12,74.92l0,-51.327l0,51.327Z" style="fill:#002c58;fill-rule:nonzero;"/><path d="M275.12,23.593l0,51.327" style="fill:none;fill-rule:nonzero;stroke:#002c58;stroke-width:6.26px;"/><path d="M275.471,269.375l0,-51.327l0,51.327Z" style="fill:#002c58;fill-rule:nonzero;"/><path d="M275.471,218.048l0,51.327l0,-51.327Z" style="fill:none;fill-rule:nonzero;stroke:#002c58;stroke-width:6.26px;"/></g></g></svg>